<?xml version="1.0" encoding="UTF-8"?>
<svg id="Layer_1" xmlns="http://www.w3.org/2000/svg" version="1.1" viewBox="0 0 775.14 685.83">
  <!-- Generator: Adobe Illustrator 30.2.1, SVG Export Plug-In . SVG Version: 2.1.1 Build 1)  -->
  <path d="M426.24,461.65l-21.52-.93c-.33-5.47-16.35-48.44-22.79-44.27-15.49,10.05-29.14,22.69-36.92,39.45l-3.56,7.68c-5.52,11.89-7.68,24.94-8.93,38.07-3.05,32.05,3.24,61.44,1.12,85.53-.9,10.21-3.62,20.41-7.86,29.5-8.63,18.47-25.82,25.81-45.66,20.44-33.96-9.19-62.02-40.52-79.62-69.73l-14.64-24.3-11.57-20.53c-19.83-35.18-35.65-71.7-50.47-109.46-16.59-43.07-30.64-86.25-40.82-131.58l37.34,9.7c14.09,53.88,31.97,106.7,54.73,158.09,18.74,42.31,48.75,101.87,80.38,134.82,7.63,7.94,34.16,31.56,42.02,13.76,2.15-4.88,2.81-10.89,2.54-16.66l-2.79-60.93c-.9-19.72.06-38.5,3.9-57.63,6.58-32.76,27.22-59.08,58.99-72.95-13.13-11.25-27.82-19.02-42.79-26.34,54.4,13.8,92.9,41.95,108.92,98.26Z"/>
  <g>
    <path d="M313.95,297.23c-62.06,3.34-147.12-7.27-206.44-24.33l-24.12-6.94-28.73-9.27c-18.96-6.11-36.98-12.6-54.66-22.56l48.61,7.41c50.24,7.66,99.92,14.19,150.7,17.14l11.18.65c34.78,2.02,68.73,2.19,103.59.24l-.12,37.66Z"/>
    <g>
      <path d="M370.59,313.96c-.07,7.74-15.86,7.46-22.14,7.41-8.17-.06-25.12,1.43-25.14-8.26l-.06-32.64c0-2.19,2.59-7.31,4.83-7.33l34.43-.26c2.38-.02,5.71,1.76,6.89,3.27,1.73,2.21,1.45,6.29,1.43,8.98l-.24,28.82Z"/>
      <path d="M365.85,263l-36.52-.11c-2.61,0-6.08-4.45-6.08-6.87l.11-35.12c0-2.83,5.41-5.23,7.86-5.23l32.33.05c2.62,0,7.1,3.88,7.11,6.64l.04,32.93c0,2.52-2.64,5.72-4.85,7.71Z"/>
      <path d="M419.42,320.93c-9.88.47-19.23.41-29.04.13-3.54-.1-9.52-2.76-9.55-6.78l-.23-34.15c-.02-3.03,2.88-6.97,6.32-7.01l30.65-.32c4.38-.05,10.25,2.02,10.27,7.56l.16,31.96c.02,4.67-2.91,8.34-8.59,8.61Z"/>
      <path d="M420.46,262.96l-35.65.02-4.14-4.11.03-35.63c0-4.41,3.36-7.56,7.7-7.56l31.06.02c4.86,0,8.48,3.78,8.48,8.56v31.01c0,4.31-3.12,7.69-7.48,7.69Z"/>
    </g>
  </g>
  <g>
    <path d="M593.82,442.93c12.64-40.43,21.62-79,29.52-119.15,8.3-42.19,15.41-83.74,19.04-126.15l17.6-11.64,22.76-15.92c2.35,83.47-10.4,166.53-31.61,248.14-12.27,5.83-23.96,11.95-36.59,16.79l-20.73,7.94Z"/>
    <g>
      <path d="M262.9,83.52c-33.93-20.26-98.06-48.08-132.03-16.74-20.71,19.1-26.52,46.61-28.44,73.62-2.43,34.22.91,60.65,5.99,94.86l-35.1-4.89c-3.91-27.48-5.94-54.52-4.93-82.22.78-21.36,3.47-41.54,12.1-61.01,17.42-39.29,52.44-68.91,98.07-64.43,28.78,2.82,52.86,18.01,76.68,32.96l30.69,19.27c33.16,19.8,64.22,31.45,102.6,16.34-39.54,28.27-86.43,14.1-125.63-7.75Z"/>
      <path d="M601.45,36.06c-28.06-11.32-62.97,2.33-86.41,18.77l-60.52,42.44c-40.33,28.28-87.07,47.85-136.48,32,42.18,4.62,73.85-7.41,106.89-32.39,12.5-9.45,22.74-20.14,34.2-30.87,21.9-20.5,58.73-52.49,87.04-61.56,11.89-3.81,24.45-4.92,36.84-4.28,37.05,1.91,61.05,24.77,76.44,56.82,8.34,17.36,12.78,35.18,16.93,53.98.32,1.44.73,3.95.5,5.21s-2.58,2.31-4.19,3.13l-28.56,14.6c-1.26-32-8.96-84.25-42.68-97.85Z"/>
    </g>
    <path d="M436.86,238.66l33.35-10.37c63.71-19.81,163.94-71.79,224.58-104.33l62.71-33.65c-26.83,25.88-55.39,48.6-85.83,70.16-71.36,50.53-150.81,91.13-234.82,116.01l.02-37.81Z"/>
    <path d="M765.11,121.77c-.26-14.13,2.69-30.54-11.92-38.38-7.73-4.15-15.51-5.59-24.39-7.36l16.31-3.05c5.35-1,12.16.25,17.54,1.31,8.9,1.76,13.36,9.13,12.34,18.19-1.17,10.42-5.57,19.93-9.88,29.28Z"/>
  </g>
  <g>
    <path d="M392.33,474.3c1.82-3.59,4.43-2.28,7.48-2.16l40.59,1.54,12.46.48c54.51,2.09,97.46-4.57,149.08-22.09,19.03-6.46,36.41-15.09,54.89-23.23,4.48-1.98,10.27,3.02,13.23,5.61,7.29,6.41,7.89,16.64.89,23.5-3.2,3.13-7.44,5.8-12.02,7.68-60.6,24.93-126.13,33.14-191.34,25.15-29.11-3.57-47.22-8.81-75.24-16.47Z"/>
    <path d="M418.02,538.9c-2.9-.98-19.34-7.28-19.11-8.68l.36-2.2,7.98.9,17.5,2.42,52.72,6.53c53.7,5.07,107.77-3.65,158.62-20.52,3.18-2.04,8.94-4.1,12.07-1.62,4.16,3.29,7.25,9.02,7.34,14.85.1,6.52-5.44,15.64-13.32,17.76-52.76,14.18-111.73,16.13-166.16,5.93-19.78-3.71-38.46-8.78-57.99-15.36Z"/>
    <path d="M520.46,636.92c12.6.91,24.38.92,37.05-.5-14.45,18.99-32.63,38.93-55.98,46.51-30.16,9.79-54.67-6.35-70-31.67-8.19-13.53-12.75-28-15.8-43.33,12.18,8.17,28.38,12.94,41.4,17.87,3.35,5.84,6.41,12.44,12.01,16.81,7.82,6.12,19.49,5.54,27.54,0l9.73-6.71,14.06,1.02Z"/>
    <path d="M602.62,591.95c4.59-1.22,10.24-2.72,13.58,1.49,5.39,6.79,3.42,20.25-6.5,23.27-26.1,7.94-65.49,10.87-93.51,8.51-38.41-3.23-74.86-14.37-108.09-33.84-5.57-3.26-10.09-6.7-15-10.94l8.05,2.61c13.29,4.31,25.83,8.84,39.53,12.23,20.95,5.19,41.94,9.41,63.69,9.28l25.1-.16c25.12-.16,49.1-6.05,73.16-12.46Z"/>
    <path d="M622.34,509.58c-17.92,5.36-35.99,10.03-55.16,13.14l7.86-21.87c18.84-3.1,37.03-7.16,55.39-12.66l-8.08,21.39Z"/>
    <path d="M589.87,583.49c-17.93,4.43-34.92,7.78-53.5,9.17l9.68-19.91,9.71-.49c13.86-.69,26.9-1.59,41.3-3.24l-7.18,14.47Z"/>
    <path d="M442.38,558.18l3.52,26.66-32.99-9.87.24-25.92c10.07,3.89,19.39,6.87,29.24,9.13Z"/>
    <polygon points="438.17 521.59 411.99 518.42 410.3 491.25 434.14 496.97 438.17 521.59"/>
  </g>
</svg>